<?xml version="1.0"?>
<svg width="32" height="32" xmlns="http://www.w3.org/2000/svg" xmlns:svg="http://www.w3.org/2000/svg" version="1.1">
 <g class="layer">
  <title>Layer 1</title>
  <path d="m12,29c0,1.66 -1.34,3 -3,3s-3,-1.34 -3,-3c0,-1.66 1.34,-3 3,-3s3,1.34 3,3z" fill="#ffffff" id="svg_1" transform="matrix(1 0 0 1 0 0)"/>
  <path d="m32,29c0,1.66 -1.34,3 -3,3s-3,-1.34 -3,-3c0,-1.66 1.34,-3 3,-3s3,1.34 3,3z" fill="#ffffff" id="svg_2"/>
  <path d="m32,16l0,-12l-24,0c0,-1.1 -0.89,-2 -2,-2l-6,0l0,2l4,0l1.5,12.88c-0.91,0.73 -1.5,1.86 -1.5,3.12c0,2.21 1.79,4 4,4l24,0l0,-2l-24,0c-1.11,0 -2,-0.89 -2,-2c0,-0.01 0,-0.01 0,-0.02l26,-3.98z" fill="#ffffff" id="svg_3" transform="matrix(1 0 0 1 0 0)"/>
 </g>
</svg>