<svg xmlns="http://www.w3.org/2000/svg" xmlns:xlink="http://www.w3.org/1999/xlink" preserveAspectRatio="xMidYMid" width="180" height="111" viewBox="0 0 180 111">
  <defs>
    <style>
      .cls-1 {
        fill: #000;
        fill-rule: evenodd;
      }
    </style>
  </defs>
  <path d="M178.697,107.816 L178.697,106.469 C178.289,106.861 177.803,107.168 177.239,107.385 C176.675,107.603 176.094,107.712 175.496,107.712 C174.690,107.712 173.943,107.513 173.253,107.115 C172.563,106.716 172.016,106.175 171.613,105.489 C171.211,104.805 171.009,104.057 171.009,103.250 C171.009,102.638 171.127,102.053 171.363,101.494 C171.600,100.936 171.917,100.454 172.317,100.045 C172.716,99.638 173.194,99.314 173.749,99.072 C174.304,98.830 174.886,98.710 175.496,98.710 C176.399,98.710 177.224,98.957 177.967,99.452 C178.713,99.947 179.272,100.614 179.646,101.455 C179.882,102.029 180.000,102.611 180.000,103.198 L180.000,107.816 L178.697,107.816 ZM177.760,100.969 C177.137,100.338 176.382,100.021 175.496,100.021 C174.621,100.021 173.874,100.338 173.253,100.969 C172.632,101.600 172.321,102.361 172.321,103.250 C172.321,104.150 172.632,104.918 173.253,105.552 C173.874,106.187 174.621,106.504 175.496,106.504 C176.382,106.504 177.137,106.187 177.760,105.552 C178.385,104.918 178.697,104.150 178.697,103.250 C178.697,102.361 178.385,101.600 177.760,100.969 ZM172.852,61.297 L174.527,57.463 L170.955,49.412 L172.138,49.412 L175.129,56.120 L178.035,49.412 L179.234,49.412 L174.035,61.297 L172.852,61.297 ZM169.000,101.696 C167.918,103.807 167.030,105.577 166.333,107.005 C166.196,107.269 166.061,107.540 165.929,107.816 C165.813,107.631 165.712,107.450 165.627,107.272 C165.511,107.036 165.333,106.679 165.092,106.202 C164.850,105.724 164.668,105.368 164.548,105.132 C164.461,104.953 164.208,104.453 163.789,103.630 C163.680,103.405 163.516,103.071 163.296,102.628 C163.078,102.185 162.912,101.852 162.796,101.627 C162.716,101.484 162.601,101.261 162.451,100.962 C162.301,100.663 162.189,100.439 162.115,100.289 C161.775,99.593 161.513,99.072 161.329,98.727 L162.779,98.727 C163.095,99.343 163.256,99.656 163.262,99.668 C163.855,100.859 164.215,101.572 164.341,101.808 C164.422,101.975 164.544,102.227 164.707,102.563 C164.872,102.900 164.996,103.155 165.083,103.328 C165.129,103.414 165.398,103.943 165.894,104.915 L165.911,104.950 C165.923,104.950 165.929,104.938 165.929,104.915 C165.998,104.789 166.068,104.654 166.139,104.510 C166.211,104.367 166.292,104.206 166.381,104.031 C166.470,103.856 166.537,103.721 166.584,103.630 C166.700,103.394 166.877,103.037 167.119,102.560 C167.361,102.082 167.541,101.725 167.663,101.489 C167.692,101.437 167.799,101.223 167.986,100.847 C168.173,100.469 168.318,100.183 168.422,99.987 C168.600,99.636 168.805,99.215 169.035,98.727 L170.484,98.727 C170.323,99.060 170.077,99.555 169.746,100.212 C169.415,100.867 169.167,101.362 169.000,101.696 ZM168.698,59.035 C168.408,59.834 167.898,60.449 167.171,60.881 C166.442,61.313 165.571,61.528 164.555,61.528 C163.803,61.528 163.131,61.423 162.539,61.211 C161.947,60.999 161.463,60.715 161.086,60.361 C160.712,60.006 160.366,59.488 160.055,58.805 L161.269,58.805 C161.602,59.381 162.030,59.808 162.551,60.083 C163.071,60.359 163.722,60.496 164.499,60.496 C165.261,60.496 165.905,60.353 166.432,60.067 C166.959,59.781 167.334,59.424 167.556,58.994 C167.777,58.566 167.888,57.870 167.888,56.907 L167.888,56.462 C167.471,56.997 166.956,57.407 166.344,57.693 C165.734,57.980 165.090,58.121 164.413,58.121 C163.613,58.121 162.861,57.923 162.153,57.526 C161.448,57.129 160.903,56.593 160.520,55.919 C160.136,55.243 159.944,54.504 159.944,53.700 C159.944,52.895 160.144,52.145 160.544,51.449 C160.943,50.752 161.497,50.202 162.206,49.797 C162.915,49.392 163.659,49.189 164.436,49.189 C165.092,49.189 165.687,49.290 166.222,49.491 C166.671,49.655 167.204,49.970 167.817,50.436 C168.336,50.865 168.744,51.683 169.039,52.889 C169.029,53.048 169.024,54.202 169.024,56.351 C169.024,57.574 168.914,58.468 168.698,59.035 ZM167.511,51.937 C167.223,51.424 166.815,51.017 166.289,50.718 C165.763,50.419 165.193,50.269 164.580,50.269 C163.944,50.269 163.356,50.422 162.814,50.730 C162.271,51.037 161.845,51.460 161.535,52.000 C161.226,52.540 161.071,53.126 161.071,53.755 C161.071,54.713 161.390,55.505 162.031,56.129 C162.672,56.753 163.499,57.065 164.516,57.065 C165.552,57.065 166.383,56.756 167.008,56.137 C167.633,55.518 167.944,54.703 167.944,53.691 C167.944,53.035 167.801,52.450 167.511,51.937 ZM160.259,103.111 L160.259,103.414 L160.259,103.483 L160.259,103.612 C160.253,103.647 160.247,103.697 160.242,103.764 C160.236,103.830 160.230,103.876 160.224,103.906 L155.720,103.906 L152.588,103.906 L152.553,103.906 C152.531,103.906 152.524,103.917 152.537,103.941 C152.537,103.952 152.540,103.971 152.545,103.996 C152.551,104.023 152.553,104.041 152.553,104.052 C152.732,104.738 153.082,105.303 153.602,105.749 C154.123,106.195 154.733,106.447 155.435,106.504 L155.945,106.504 C156.388,106.457 156.823,106.333 157.252,106.129 C157.680,105.924 158.002,105.661 158.214,105.339 L159.767,105.339 C158.904,106.887 157.613,107.712 155.893,107.816 L155.841,107.816 L155.573,107.816 L155.539,107.816 C155.510,107.816 155.465,107.813 155.401,107.807 C155.337,107.802 155.292,107.798 155.263,107.798 C154.188,107.690 153.273,107.258 152.520,106.504 C152.134,106.118 151.814,105.656 151.557,105.118 C151.301,104.580 151.173,104.058 151.173,103.552 C151.161,103.471 151.156,103.341 151.156,103.164 C151.161,103.111 151.169,103.033 151.178,102.926 C151.186,102.820 151.194,102.740 151.199,102.689 C151.239,102.412 151.285,102.194 151.337,102.033 C151.590,101.066 152.111,100.277 152.899,99.668 C153.688,99.058 154.585,98.739 155.591,98.710 C155.643,98.710 155.674,98.704 155.686,98.692 L155.755,98.692 C155.755,98.704 155.766,98.710 155.789,98.710 C155.979,98.710 156.114,98.715 156.195,98.727 C156.838,98.779 157.456,98.983 158.046,99.340 C158.635,99.697 159.124,100.161 159.513,100.733 C159.900,101.306 160.132,101.912 160.207,102.551 C160.242,102.752 160.259,102.939 160.259,103.111 ZM157.795,100.756 C157.240,100.290 156.589,100.039 155.841,100.004 C155.605,100.004 155.430,100.016 155.315,100.039 C155.177,100.051 154.975,100.091 154.711,100.159 C154.181,100.338 153.725,100.629 153.343,101.036 C152.961,101.441 152.697,101.915 152.553,102.456 C152.553,102.468 152.551,102.489 152.545,102.521 C152.540,102.552 152.537,102.573 152.537,102.585 C152.531,102.591 152.537,102.602 152.553,102.620 L152.588,102.620 L155.720,102.620 L158.844,102.620 C158.867,102.620 158.881,102.616 158.887,102.611 C158.892,102.605 158.895,102.585 158.895,102.551 C158.717,101.820 158.350,101.222 157.795,100.756 ZM153.312,58.337 C151.979,58.337 150.890,57.882 150.047,56.975 C149.203,56.066 148.780,55.007 148.780,53.794 C148.780,52.588 149.180,51.539 149.979,50.650 C150.862,49.677 151.973,49.190 153.312,49.190 C154.651,49.190 155.763,49.673 156.646,50.642 C157.446,51.532 157.845,52.582 157.845,53.794 C157.845,55.007 157.421,56.066 156.575,56.975 C155.728,57.882 154.640,58.337 153.312,58.337 ZM155.702,51.317 C155.035,50.630 154.238,50.285 153.312,50.285 C152.386,50.285 151.590,50.630 150.924,51.317 C150.257,52.005 149.924,52.837 149.924,53.811 C149.924,54.440 150.076,55.029 150.380,55.578 C150.684,56.126 151.095,56.547 151.614,56.840 C152.133,57.133 152.699,57.280 153.312,57.280 C153.936,57.280 154.507,57.133 155.023,56.840 C155.539,56.547 155.947,56.126 156.249,55.578 C156.551,55.029 156.703,54.440 156.703,53.811 C156.703,52.837 156.368,52.005 155.702,51.317 ZM147.641,96.906 C147.388,96.906 147.172,96.815 146.993,96.634 C146.814,96.453 146.725,96.235 146.725,95.983 C146.725,95.730 146.814,95.514 146.993,95.335 C147.172,95.156 147.388,95.067 147.641,95.067 C147.893,95.067 148.110,95.156 148.291,95.335 C148.474,95.514 148.564,95.730 148.564,95.983 C148.564,96.235 148.474,96.453 148.291,96.634 C148.110,96.815 147.893,96.906 147.641,96.906 ZM145.455,41.799 L145.455,39.833 C144.838,40.981 143.720,41.624 142.101,41.759 C140.775,41.759 139.692,41.309 138.853,40.405 C138.014,39.503 137.594,38.449 137.594,37.244 C137.594,36.044 137.991,35.002 138.786,34.118 C139.665,33.150 140.769,32.664 142.101,32.664 C143.431,32.664 144.536,33.147 145.415,34.110 C146.226,34.989 146.631,36.034 146.631,37.244 C146.640,40.234 146.640,41.752 146.631,41.799 L145.455,41.799 ZM144.452,34.780 C143.806,34.096 143.021,33.755 142.101,33.755 C141.181,33.755 140.388,34.096 139.725,34.780 C139.062,35.466 138.732,36.291 138.732,37.260 C138.732,37.886 138.882,38.471 139.184,39.016 C139.487,39.561 139.896,39.980 140.411,40.271 C140.927,40.564 141.490,40.710 142.101,40.710 C144.073,40.510 145.181,39.360 145.423,37.260 C145.423,36.291 145.100,35.466 144.452,34.780 ZM141.693,50.642 C142.494,51.532 142.893,52.582 142.893,53.794 C142.893,55.007 142.470,56.066 141.623,56.975 C140.777,57.882 139.687,58.337 138.360,58.337 C137.028,58.337 135.938,57.882 135.095,56.975 C134.251,56.066 133.829,55.007 133.829,53.794 C133.829,52.588 134.228,51.539 135.026,50.650 C135.911,49.677 137.021,49.190 138.360,49.190 C139.699,49.190 140.811,49.673 141.693,50.642 ZM135.973,51.317 C135.304,52.005 134.971,52.837 134.971,53.811 C134.971,54.440 135.124,55.029 135.429,55.578 C135.732,56.126 136.143,56.547 136.662,56.840 C137.181,57.133 137.746,57.280 138.360,57.280 C138.984,57.280 139.556,57.133 140.071,56.840 C140.587,56.547 140.996,56.126 141.298,55.578 C141.600,55.029 141.751,54.440 141.751,53.811 C141.751,52.837 141.417,52.005 140.749,51.317 C140.084,50.630 139.286,50.285 138.360,50.285 C137.434,50.285 136.638,50.630 135.973,51.317 ZM129.672,40.292 C130.229,40.596 130.855,40.749 131.550,40.749 C132.828,40.749 133.870,40.244 134.675,39.234 L135.558,39.810 C135.143,40.431 134.586,40.911 133.889,41.250 C133.192,41.590 132.396,41.760 131.503,41.760 C130.139,41.760 129.007,41.326 128.106,40.457 C127.203,39.589 126.752,38.533 126.752,37.291 C126.752,36.450 126.964,35.669 127.386,34.951 C127.810,34.233 128.389,33.672 129.123,33.268 C129.856,32.867 130.682,32.664 131.597,32.664 C132.164,32.664 132.717,32.752 133.251,32.925 C133.784,33.100 134.237,33.327 134.612,33.608 C134.984,33.890 135.301,34.250 135.558,34.686 L134.675,35.239 C133.912,34.217 132.870,33.707 131.550,33.707 C130.492,33.707 129.616,34.046 128.917,34.725 C128.221,35.405 127.873,36.231 127.873,37.205 C127.873,37.836 128.033,38.433 128.354,38.993 C128.674,39.554 129.115,39.987 129.672,40.292 ZM124.893,57.170 C125.421,57.417 125.961,57.394 126.512,57.098 C126.654,57.495 126.771,57.805 126.861,58.027 C126.278,58.249 125.760,58.352 125.305,58.337 C124.448,58.288 123.771,57.843 123.273,57.003 C122.946,56.440 122.800,55.859 122.837,55.256 L122.837,46.212 L123.964,46.212 L123.964,50.420 L126.036,50.420 L126.036,51.381 L123.972,51.381 L123.972,55.064 C124.109,56.213 124.417,56.915 124.893,57.170 ZM124.534,41.752 L123.421,41.752 L123.421,33.091 L124.534,33.091 L124.534,41.752 ZM123.974,31.370 C123.721,31.370 123.505,31.279 123.326,31.098 C123.149,30.917 123.059,30.699 123.059,30.447 C123.059,30.194 123.149,29.978 123.326,29.799 C123.505,29.620 123.721,29.531 123.974,29.531 C124.226,29.531 124.443,29.620 124.625,29.799 C124.806,29.978 124.897,30.194 124.897,30.447 C124.897,30.699 124.806,30.917 124.625,31.098 C124.443,31.279 124.226,31.370 123.974,31.370 ZM125.677,98.623 C126.580,98.623 127.416,98.879 128.183,99.391 C128.952,99.904 129.511,100.580 129.862,101.420 C130.098,101.955 130.215,102.542 130.215,103.181 C130.215,104.003 130.014,104.765 129.611,105.463 C129.209,106.163 128.660,106.718 127.963,107.130 C127.268,107.541 126.505,107.747 125.677,107.747 C125.079,107.747 124.497,107.629 123.930,107.393 C123.363,107.156 122.868,106.826 122.441,106.400 C122.430,106.388 122.424,106.378 122.424,106.366 L122.424,111.000 L121.113,111.000 L121.113,103.181 C121.113,102.364 121.315,101.606 121.722,100.906 C122.126,100.208 122.680,99.652 123.382,99.241 C124.084,98.829 124.849,98.623 125.677,98.623 ZM122.424,103.181 C122.424,104.084 122.741,104.852 123.374,105.485 C124.007,106.118 124.774,106.435 125.677,106.435 C126.574,106.435 127.341,106.117 127.976,105.480 C128.612,104.845 128.930,104.078 128.930,103.181 C128.930,102.289 128.611,101.525 127.972,100.888 C127.333,100.253 126.569,99.935 125.677,99.935 C124.774,99.935 124.007,100.253 123.374,100.888 C122.741,101.525 122.424,102.289 122.424,103.181 ZM116.596,41.792 C115.907,41.792 115.273,41.651 114.693,41.369 C114.115,41.087 113.592,40.659 113.124,40.087 L113.124,44.918 L112.019,44.918 L112.019,36.715 C112.114,35.952 112.398,35.175 112.871,34.386 C113.392,33.802 113.961,33.374 114.580,33.102 C115.198,32.832 115.859,32.697 116.565,32.697 C117.795,32.697 118.847,33.139 119.720,34.023 C120.593,34.907 121.031,35.973 121.031,37.220 C121.031,38.489 120.597,39.568 119.728,40.458 C118.861,41.347 117.816,41.792 116.596,41.792 ZM119.444,35.507 C119.134,34.960 118.717,34.533 118.194,34.224 C117.671,33.917 117.095,33.762 116.469,33.762 C115.512,33.762 114.702,34.100 114.038,34.773 C113.376,35.446 113.044,36.287 113.044,37.291 C113.044,37.944 113.192,38.534 113.487,39.064 C113.781,39.593 114.202,40.011 114.749,40.320 C115.296,40.627 115.875,40.781 116.485,40.781 C117.085,40.781 117.650,40.627 118.177,40.320 C118.707,40.011 119.128,39.577 119.442,39.016 C119.753,38.455 119.911,37.871 119.911,37.260 C119.911,36.639 119.755,36.055 119.444,35.507 ZM113.878,53.794 C113.887,56.801 113.887,58.328 113.878,58.375 L112.694,58.375 L112.694,56.398 C112.075,57.553 110.951,58.199 109.321,58.337 C107.988,58.337 106.899,57.882 106.056,56.975 C105.211,56.066 104.789,55.007 104.789,53.794 C104.789,52.588 105.189,51.539 105.988,50.650 C106.872,49.677 107.982,49.190 109.321,49.190 C110.660,49.190 111.771,49.673 112.655,50.642 C113.469,51.526 113.878,52.578 113.878,53.794 ZM111.686,51.317 C111.035,50.630 110.247,50.285 109.321,50.285 C108.395,50.285 107.598,50.630 106.932,51.317 C106.265,52.005 105.933,52.837 105.933,53.811 C105.933,54.440 106.084,55.029 106.389,55.578 C106.693,56.126 107.104,56.547 107.623,56.840 C108.141,57.133 108.708,57.280 109.321,57.280 C111.306,57.079 112.419,55.923 112.663,53.811 C112.663,52.837 112.338,52.005 111.686,51.317 ZM107.773,36.621 C108.603,37.046 109.168,37.460 109.462,37.860 C109.751,38.265 109.896,38.721 109.896,39.226 C109.896,39.931 109.647,40.530 109.150,41.021 C108.653,41.514 108.031,41.759 107.284,41.759 C106.785,41.759 106.307,41.653 105.852,41.440 C105.397,41.227 105.021,40.928 104.727,40.544 L105.430,39.747 C105.998,40.389 106.599,40.710 107.236,40.710 C107.679,40.710 108.056,40.566 108.369,40.279 C108.681,39.993 108.839,39.658 108.839,39.273 C108.839,38.953 108.735,38.668 108.531,38.420 C108.325,38.173 107.859,37.862 107.134,37.489 C106.349,37.094 105.819,36.697 105.539,36.296 C105.255,35.907 105.114,35.460 105.114,34.955 C105.114,34.296 105.338,33.751 105.788,33.316 C106.238,32.882 106.802,32.665 107.481,32.665 C108.275,32.665 109.078,33.055 109.888,33.834 L109.178,34.575 C108.578,33.997 107.997,33.707 107.434,33.707 C107.070,33.707 106.760,33.825 106.502,34.063 C106.244,34.300 106.116,34.580 106.116,34.907 C106.116,35.180 106.224,35.444 106.439,35.696 C106.650,35.965 107.095,36.273 107.773,36.621 ZM106.536,99.072 C107.091,98.830 107.673,98.710 108.283,98.710 C109.185,98.710 110.010,98.957 110.754,99.452 C111.499,99.947 112.059,100.614 112.433,101.455 C112.669,102.029 112.787,102.611 112.787,103.198 L112.787,107.816 L111.483,107.816 L111.483,106.469 C111.075,106.861 110.589,107.168 110.026,107.385 C109.462,107.603 108.881,107.712 108.283,107.712 C107.477,107.712 106.730,107.513 106.039,107.115 C105.349,106.716 104.802,106.175 104.400,105.489 C103.998,104.805 103.796,104.057 103.796,103.250 C103.796,102.638 103.914,102.053 104.150,101.494 C104.386,100.936 104.704,100.454 105.104,100.045 C105.503,99.638 105.981,99.314 106.536,99.072 ZM106.039,105.552 C106.661,106.187 107.408,106.504 108.283,106.504 C109.169,106.504 109.924,106.187 110.547,105.552 C111.172,104.918 111.483,104.150 111.483,103.250 C111.483,102.361 111.172,101.600 110.547,100.969 C109.924,100.338 109.169,100.021 108.283,100.021 C107.408,100.021 106.661,100.338 106.039,100.969 C105.418,101.600 105.108,102.361 105.108,103.250 C105.108,104.150 105.418,104.918 106.039,105.552 ZM100.173,98.960 L99.009,100.073 C98.658,100.424 98.393,100.683 98.215,100.850 C98.513,101.201 98.966,101.722 99.574,102.412 C100.180,103.103 100.634,103.621 100.933,103.966 C101.312,104.398 101.880,105.040 102.636,105.891 C103.393,106.742 103.958,107.384 104.332,107.816 L102.598,107.816 L99.466,104.259 C99.224,103.983 98.859,103.569 98.370,103.016 C97.881,102.464 97.516,102.050 97.274,101.773 C97.200,101.848 97.090,101.955 96.946,102.093 C96.803,102.231 96.697,102.335 96.627,102.404 C96.535,102.478 96.452,102.562 96.377,102.654 L96.377,107.816 L95.065,107.816 L95.065,95.455 L96.377,95.455 L96.377,100.833 L96.593,100.617 C98.468,98.822 100.056,97.274 101.355,95.974 C101.430,95.910 101.529,95.818 101.652,95.697 C101.776,95.577 101.861,95.496 101.908,95.455 L103.762,95.455 L103.607,95.619 C102.204,96.960 101.059,98.074 100.173,98.960 ZM98.342,57.928 C96.757,57.928 95.463,56.635 95.463,55.050 C95.463,53.466 96.757,52.170 98.342,52.170 C99.926,52.170 101.219,53.466 101.219,55.050 C101.219,56.635 99.926,57.928 98.342,57.928 ZM82.111,57.916 C74.412,57.916 68.126,51.627 68.126,43.929 C68.126,36.231 74.412,29.939 82.111,29.939 C89.805,29.939 96.092,36.231 96.092,43.929 C96.092,51.627 89.805,57.916 82.111,57.916 ZM57.523,42.036 C60.034,43.324 61.734,44.571 62.623,45.779 C63.498,47.004 63.935,48.379 63.935,49.904 C63.935,52.035 63.184,53.843 61.683,55.329 C60.181,56.816 58.301,57.558 56.046,57.558 C54.536,57.558 53.094,57.236 51.719,56.593 C50.346,55.949 49.213,55.047 48.323,53.887 L50.444,51.479 C52.161,53.418 53.980,54.387 55.902,54.387 C57.237,54.387 58.378,53.954 59.323,53.088 C60.268,52.221 60.741,51.208 60.741,50.048 C60.741,49.077 60.431,48.219 59.811,47.473 C59.193,46.726 57.786,45.788 55.593,44.659 C53.225,43.466 51.620,42.267 50.779,41.058 C49.921,39.881 49.492,38.531 49.492,37.005 C49.492,35.018 50.171,33.369 51.529,32.057 C52.888,30.746 54.591,30.090 56.642,30.090 C59.040,30.090 61.464,31.267 63.912,33.619 L61.766,35.861 C59.955,34.112 58.199,33.238 56.499,33.238 C55.403,33.238 54.465,33.595 53.687,34.310 C52.907,35.026 52.517,35.877 52.517,36.862 C52.517,37.688 52.844,38.483 53.495,39.246 C54.131,40.057 55.474,40.987 57.523,42.036 ZM43.524,3.329 C21.360,3.329 3.328,21.367 3.328,43.540 C3.328,65.712 21.360,83.751 43.524,83.751 C58.583,83.751 72.508,75.151 79.334,61.772 C80.439,62.095 81.601,62.281 82.798,62.324 C75.597,77.365 60.191,87.082 43.524,87.082 C19.525,87.082 -0.000,67.548 -0.000,43.540 C-0.000,19.531 19.525,-0.001 43.524,-0.001 C60.204,-0.001 75.629,9.732 82.822,24.797 C82.908,24.977 82.952,25.164 82.970,25.351 C81.811,25.379 80.689,25.549 79.614,25.840 C72.891,12.154 58.782,3.329 43.524,3.329 ZM22.891,100.073 C22.902,100.061 22.908,100.051 22.908,100.039 C23.828,99.153 24.907,98.710 26.144,98.710 C27.058,98.710 27.896,98.961 28.659,99.465 C29.421,99.968 29.977,100.643 30.328,101.489 C30.564,102.024 30.682,102.614 30.682,103.258 C30.682,104.087 30.482,104.849 30.083,105.546 C29.683,106.242 29.134,106.794 28.439,107.203 C27.743,107.612 26.978,107.816 26.144,107.816 C25.321,107.816 24.559,107.614 23.857,107.212 C23.155,106.809 22.600,106.257 22.192,105.559 C21.783,104.859 21.579,104.092 21.579,103.258 L21.579,95.456 L22.891,95.456 L22.891,100.073 ZM23.840,105.567 C24.472,106.203 25.240,106.521 26.144,106.521 C27.035,106.521 27.800,106.202 28.439,105.563 C29.077,104.924 29.397,104.156 29.397,103.258 C29.397,102.367 29.077,101.601 28.439,100.963 C27.800,100.324 27.035,100.004 26.144,100.004 C25.247,100.004 24.480,100.322 23.844,100.958 C23.209,101.594 22.891,102.361 22.891,103.258 C22.891,104.162 23.207,104.931 23.840,105.567 ZM33.551,98.997 L36.543,105.706 L39.448,98.997 L40.647,98.997 L35.448,110.883 L34.266,110.883 L35.940,107.049 L32.368,98.997 L33.551,98.997 ZM47.705,106.417 L49.880,102.067 C50.995,99.892 52.091,97.708 53.167,95.516 C53.173,95.510 53.177,95.502 53.180,95.495 C53.182,95.485 53.186,95.477 53.189,95.468 C53.191,95.461 53.195,95.456 53.202,95.456 C53.224,95.456 53.236,95.476 53.236,95.516 C53.391,95.815 53.621,96.262 53.926,96.854 C54.306,97.625 55.079,99.164 56.247,101.472 C57.433,103.877 58.490,105.991 59.422,107.816 L57.973,107.816 L57.447,106.754 C57.382,106.628 57.295,106.450 57.178,106.223 C57.064,105.996 56.962,105.791 56.873,105.611 C56.783,105.429 56.699,105.258 56.618,105.097 C56.589,105.045 56.553,105.019 56.506,105.019 L49.880,105.019 C49.856,105.019 49.845,105.034 49.845,105.063 L49.810,105.097 L48.542,107.643 C48.530,107.683 48.499,107.741 48.447,107.816 L46.998,107.816 C47.021,107.764 47.120,107.562 47.296,107.212 C47.471,106.861 47.607,106.596 47.705,106.417 ZM50.604,103.733 L55.815,103.733 L55.876,103.733 C55.887,103.733 55.897,103.730 55.902,103.725 C55.908,103.719 55.908,103.710 55.902,103.699 C55.897,103.687 55.887,103.669 55.876,103.647 C55.784,103.463 55.541,102.977 55.147,102.192 C54.753,101.407 54.452,100.802 54.246,100.376 C53.797,99.501 53.460,98.839 53.236,98.390 C53.236,98.368 53.224,98.356 53.202,98.356 C53.190,98.356 53.184,98.368 53.184,98.390 C53.149,98.459 53.058,98.644 52.908,98.947 C52.758,99.248 52.641,99.478 52.554,99.633 C52.445,99.857 51.778,101.195 50.553,103.647 C50.529,103.669 50.518,103.693 50.518,103.716 C50.541,103.728 50.569,103.733 50.604,103.733 ZM64.348,98.710 C64.883,98.710 65.393,98.813 65.876,99.021 C66.359,99.228 66.775,99.505 67.123,99.853 C67.470,100.201 67.747,100.616 67.952,101.096 C68.156,101.577 68.257,102.079 68.257,102.603 L68.257,107.816 L66.946,107.816 L66.946,102.585 C66.946,101.877 66.692,101.273 66.186,100.772 C65.680,100.272 65.074,100.016 64.366,100.004 C63.658,100.016 63.051,100.272 62.545,100.772 C62.039,101.273 61.786,101.877 61.786,102.585 L61.786,107.816 L60.475,107.816 L60.475,102.603 C60.475,101.532 60.853,100.616 61.609,99.853 C62.365,99.091 63.279,98.710 64.348,98.710 ZM73.883,98.710 C74.418,98.710 74.927,98.813 75.411,99.021 C75.894,99.228 76.310,99.505 76.658,99.853 C77.005,100.201 77.282,100.616 77.486,101.096 C77.690,101.577 77.792,102.079 77.792,102.603 L77.792,107.816 L76.481,107.816 L76.481,102.585 C76.481,101.877 76.227,101.273 75.721,100.772 C75.215,100.272 74.609,100.016 73.901,100.004 C73.193,100.016 72.586,100.272 72.080,100.772 C71.574,101.273 71.321,101.877 71.321,102.585 L71.321,107.816 L70.009,107.816 L70.009,102.603 C70.009,101.532 70.388,100.616 71.144,99.853 C71.900,99.091 72.813,98.710 73.883,98.710 ZM80.324,100.045 C80.723,99.638 81.201,99.314 81.756,99.072 C82.311,98.830 82.893,98.710 83.503,98.710 C84.406,98.710 85.231,98.957 85.974,99.452 C86.720,99.947 87.279,100.614 87.653,101.455 C87.889,102.029 88.007,102.611 88.007,103.198 L88.007,107.816 L86.704,107.816 L86.704,106.469 C86.296,106.861 85.810,107.168 85.246,107.385 C84.682,107.603 84.101,107.712 83.503,107.712 C82.697,107.712 81.950,107.513 81.260,107.115 C80.570,106.716 80.023,106.175 79.620,105.489 C79.218,104.805 79.016,104.057 79.016,103.250 C79.016,102.638 79.134,102.053 79.371,101.494 C79.607,100.936 79.924,100.454 80.324,100.045 ZM81.260,105.552 C81.881,106.187 82.628,106.504 83.503,106.504 C84.389,106.504 85.144,106.187 85.767,105.552 C86.392,104.918 86.704,104.150 86.704,103.250 C86.704,102.361 86.392,101.600 85.767,100.969 C85.144,100.338 84.389,100.021 83.503,100.021 C82.628,100.021 81.881,100.338 81.260,100.969 C80.639,101.600 80.328,102.361 80.328,103.250 C80.328,104.150 80.639,104.918 81.260,105.552 ZM117.045,99.431 C117.670,99.009 118.188,98.797 118.601,98.797 C118.907,98.797 119.236,98.898 119.585,99.099 L119.005,100.036 C118.515,99.856 118.025,100.000 117.541,100.472 C117.057,100.943 116.722,101.457 116.538,102.012 C116.400,102.505 116.331,103.428 116.331,104.783 L116.331,107.728 L115.188,107.728 L115.188,103.759 L115.188,102.711 C115.273,102.187 115.394,101.761 115.552,101.432 C115.923,100.522 116.420,99.856 117.045,99.431 ZM116.853,58.014 C116.395,57.801 116.018,57.501 115.722,57.113 L116.429,56.311 C117.000,56.958 117.606,57.280 118.246,57.280 C118.690,57.280 119.069,57.136 119.385,56.847 C119.699,56.559 119.857,56.222 119.857,55.836 C119.857,55.512 119.754,55.226 119.547,54.977 C119.341,54.730 118.873,54.417 118.143,54.041 C117.353,53.643 116.820,53.245 116.539,52.842 C116.253,52.450 116.110,52.000 116.110,51.492 C116.110,50.831 116.337,50.281 116.789,49.845 C117.242,49.408 117.809,49.189 118.491,49.189 C119.290,49.189 120.098,49.581 120.913,50.365 L120.198,51.111 C119.595,50.529 119.011,50.237 118.445,50.237 C118.079,50.237 117.767,50.356 117.508,50.595 C117.249,50.833 117.118,51.116 117.118,51.445 C117.118,51.720 117.227,51.984 117.445,52.238 C117.655,52.509 118.103,52.818 118.786,53.168 C119.622,53.596 120.187,54.011 120.484,54.413 C120.775,54.822 120.920,55.279 120.920,55.788 C120.920,56.497 120.670,57.099 120.171,57.594 C119.670,58.088 119.045,58.337 118.294,58.337 C117.791,58.337 117.310,58.229 116.853,58.014 ZM129.849,55.366 L129.849,58.312 L128.706,58.312 L128.706,54.342 L128.706,53.294 C128.791,52.770 128.912,52.345 129.070,52.015 C129.441,51.105 129.938,50.438 130.563,50.015 C131.188,49.591 131.706,49.380 132.119,49.380 C132.425,49.380 132.754,49.481 133.103,49.682 L132.523,50.619 C132.032,50.438 131.543,50.584 131.059,51.055 C130.575,51.527 130.240,52.040 130.056,52.596 C129.918,53.087 129.849,54.011 129.849,55.366 ZM132.602,95.176 C132.855,95.176 133.071,95.266 133.254,95.444 C133.435,95.624 133.525,95.839 133.525,96.092 C133.525,96.343 133.435,96.562 133.254,96.743 C133.071,96.925 132.855,97.015 132.602,97.015 C132.349,97.015 132.133,96.925 131.954,96.743 C131.777,96.562 131.687,96.343 131.687,96.092 C131.687,95.839 131.777,95.624 131.954,95.444 C132.133,95.266 132.349,95.176 132.602,95.176 ZM133.163,107.397 L132.050,107.397 L132.050,98.736 L133.163,98.736 L133.163,107.397 ZM136.169,102.689 C136.209,102.412 136.255,102.194 136.307,102.033 C136.560,101.066 137.081,100.277 137.869,99.668 C138.657,99.058 139.554,98.739 140.561,98.710 C140.612,98.710 140.644,98.704 140.656,98.692 L140.725,98.692 C140.725,98.704 140.736,98.710 140.759,98.710 C140.949,98.710 141.084,98.715 141.165,98.727 C141.808,98.779 142.426,98.983 143.015,99.340 C143.605,99.697 144.093,100.161 144.483,100.733 C144.870,101.306 145.102,101.912 145.177,102.551 C145.211,102.752 145.228,102.939 145.228,103.111 L145.228,103.414 L145.228,103.483 L145.228,103.612 C145.223,103.647 145.217,103.697 145.211,103.764 C145.206,103.830 145.199,103.876 145.194,103.906 L140.690,103.906 L137.558,103.906 L137.523,103.906 C137.501,103.906 137.494,103.917 137.506,103.941 C137.506,103.952 137.510,103.971 137.515,103.996 C137.521,104.023 137.523,104.041 137.523,104.052 C137.701,104.738 138.052,105.303 138.571,105.749 C139.093,106.195 139.703,106.447 140.405,106.504 L140.914,106.504 C141.358,106.457 141.793,106.333 142.222,106.129 C142.650,105.924 142.971,105.661 143.183,105.339 L144.737,105.339 C143.874,106.887 142.583,107.712 140.863,107.816 L140.811,107.816 L140.543,107.816 L140.509,107.816 C140.480,107.816 140.435,107.813 140.371,107.807 C140.307,107.802 140.262,107.798 140.233,107.798 C139.158,107.690 138.243,107.258 137.489,106.504 C137.104,106.118 136.783,105.656 136.527,105.118 C136.271,104.580 136.143,104.058 136.143,103.552 C136.131,103.471 136.126,103.341 136.126,103.164 C136.131,103.111 136.138,103.033 136.148,102.926 C136.155,102.820 136.163,102.740 136.169,102.689 ZM137.523,102.620 L137.558,102.620 L140.690,102.620 L143.814,102.620 C143.836,102.620 143.851,102.616 143.856,102.611 C143.862,102.605 143.865,102.585 143.865,102.551 C143.687,101.820 143.320,101.222 142.765,100.756 C142.210,100.290 141.558,100.039 140.811,100.004 C140.575,100.004 140.400,100.016 140.285,100.039 C140.146,100.051 139.945,100.091 139.681,100.159 C139.151,100.338 138.695,100.629 138.313,101.036 C137.930,101.441 137.667,101.915 137.523,102.456 C137.523,102.468 137.521,102.489 137.515,102.521 C137.510,102.552 137.506,102.573 137.506,102.585 C137.501,102.591 137.506,102.602 137.523,102.620 ZM146.397,58.328 L145.270,58.328 L145.270,46.251 L146.397,46.251 L146.397,58.328 ZM148.201,107.287 L147.088,107.287 L147.088,98.627 L148.201,98.627 L148.201,107.287 Z" class="cls-1"/>
</svg>
